<svg version="1.1" xmlns="http://www.w3.org/2000/svg" style="display: block;" viewBox="364 443 1255 376" width="1255" height="376">
<path transform="translate(0,0)" fill="rgb(0,166,242)" d="M 479.466 467.943 L 666.419 467.79 C 697.735 519.502 725.878 579.644 757.301 631.77 C 744.462 658.201 723.624 692.779 708.932 719.32 L 682.416 767.251 C 677.963 775.293 673.466 783.65 668.762 791.53 C 667.054 794.39 667.506 793.743 664.758 794.325 C 654.826 795.522 627.863 794.879 616.751 794.875 L 527.228 794.791 C 512.701 794.762 494.216 794.009 480.127 794.84 C 474.244 785.889 466.126 770.534 460.635 760.827 C 446.545 736.098 432.648 711.259 418.946 686.312 C 409.946 669.935 398.135 647.377 388.195 632.195 C 418.219 577.223 448.643 522.471 479.466 467.943 z M 593.829 631.854 C 569.9 676.222 541.851 725.3 516.565 769.127 C 559.509 768.965 609.136 767.914 651.833 769.086 C 668.229 739.321 684.802 709.653 701.55 680.084 C 709.51 665.923 721.775 645.445 728.259 631.31 C 711.197 600.84 694.302 570.278 677.574 539.624 C 670.824 527.317 659.079 504.3 651.792 493.226 C 608.102 492.844 559.258 492.196 515.785 493.141 C 542.508 539.067 567.339 586.038 593.829 631.854 z M 417.499 631.268 L 469.767 724.458 C 477.286 737.963 485.893 754.771 493.726 767.6 L 494.918 767.729 C 510.295 738.817 526.169 710.173 542.535 681.809 C 550.762 667.288 563.561 645.87 570.194 631.15 C 559.044 613.918 498.896 499.409 492.726 494.608 C 470.235 538.63 441.618 587.588 417.499 631.268 z"/>
<path transform="translate(0,0)" fill="rgb(240,240,240)" d="M 530.136 502.658 C 563.236 504.518 611.526 502.978 646.01 502.924 C 655.737 519.442 664.957 536.253 673.657 553.334 L 651.124 553.283 C 645.66 543.043 640.105 532.852 634.459 522.711 C 611.417 522.454 588.373 522.391 565.33 522.52 C 582.934 551.897 603.142 594.013 621.133 621.194 C 643.107 620.987 665.083 621.014 687.056 621.276 L 660.196 573.078 C 667.698 573.466 676.404 573.389 684.002 573.485 C 694.792 590.326 705.063 614.969 716.459 631.142 C 708.66 642.446 692.878 673.288 685.692 686.653 C 677.116 686.651 668.541 686.704 659.966 686.812 C 668.853 671.72 677.593 656.541 686.184 641.278 L 671.5 641.222 L 620.648 641.179 C 607.423 663.001 595.224 687.305 582.346 709.413 C 577.757 717.29 569.834 733.168 564.452 739.811 L 631.901 739.728 L 651.504 705.127 L 674.879 705.064 L 645.332 758.674 C 607.921 759.537 569.071 758.652 531.423 758.908 C 540.585 744.252 550.414 725.202 558.92 709.819 L 602.65 631.63 C 585.595 602.499 569.701 571.444 552.841 542.129 C 545.519 529.399 538.133 514.8 530.136 502.658 z"/>
<path transform="translate(0,0)" fill="rgb(240,240,240)" d="M 494.794 512.51 C 511.493 543.787 529.446 574.252 546.17 605.898 L 525.064 610.296 C 518.159 593.102 501.255 569.348 495.253 553.174 C 484.948 575.158 465.383 607.916 452.961 630.382 C 464.474 653.61 482.772 683.828 495.553 707.85 C 503.383 693.681 511.286 679.552 519.259 665.463 C 521.598 660.745 524.429 655.866 527.001 651.237 C 533.649 653.458 540.421 655.329 547.16 657.258 C 530.722 687.493 512.725 718.357 495.884 748.601 C 474.417 715.577 449.755 666.363 429.884 630.797 C 442.688 605.022 458.398 579.662 471.784 554.09 C 479.006 540.292 486.978 525.98 494.794 512.51 z"/>
<path transform="translate(0,0)" fill="rgb(240,240,240)" d="M 541.039 620.14 C 544.88 618.878 549.103 619.79 552.08 622.525 C 555.058 625.26 556.325 629.39 555.394 633.324 C 554.462 637.258 551.477 640.382 547.59 641.491 C 541.741 643.16 535.631 639.842 533.847 634.027 C 532.063 628.212 535.261 622.038 541.039 620.14 z"/>
<path transform="translate(0,0)" fill="rgb(240,240,240)" d="M 810.576 574.426 C 839.527 574.847 917.665 565.145 930.599 596.065 C 940.784 620.412 928.207 636.938 905.903 646.455 C 914.853 659.321 923.679 672.274 932.379 685.31 L 931.713 686.411 L 927.75 686.521 C 919.669 686.332 911.83 686.69 903.761 686.986 C 895.013 674.526 886.654 661.798 878.696 648.82 L 836.072 648.956 L 836.091 686.593 C 827.417 686.436 818.742 686.489 810.071 686.75 L 809.922 609.511 C 809.914 603.278 809.495 579.422 810.576 574.426 z M 836.065 628.948 C 851.715 629.077 889.64 631.804 900.377 623.887 C 925.399 588.305 853.558 597.08 835.97 597.258 L 836.065 628.948 z"/>
<path transform="translate(0,0)" fill="rgb(240,240,240)" d="M 1273.88 574.367 L 1306.86 574.481 C 1325.42 611.797 1345.82 649.424 1365.05 686.532 L 1335.75 686.55 L 1325.33 665.181 L 1307.25 665.214 L 1256.2 665.106 L 1245.04 686.766 C 1234.89 686.666 1224.75 686.639 1214.6 686.684 C 1222.76 673.074 1231.5 655.364 1239.05 641.016 C 1250.82 618.88 1262.43 596.663 1273.88 574.367 z M 1266.19 645.055 L 1293.99 645.138 L 1314.88 645.109 C 1311.4 638.725 1292.27 598.487 1289.61 596.549 C 1282.01 612.816 1274.2 628.986 1266.19 645.055 z"/>
<path transform="translate(0,0)" fill="rgb(240,240,240)" d="M 1504.75 574.446 C 1515.44 574.355 1526.12 574.405 1536.8 574.596 C 1554.53 610.498 1579.55 651.411 1595.44 686.396 C 1586.35 686.82 1575.7 686.637 1566.48 686.701 C 1562.61 679.588 1559.13 672.401 1555.56 665.138 L 1534.75 665.153 C 1518.55 665.111 1502.35 665.156 1486.15 665.288 L 1474.63 686.688 L 1446.04 686.624 C 1465.83 649.348 1485.4 611.955 1504.75 574.446 z M 1496.18 645.04 L 1519.75 645.159 L 1545.19 645.112 C 1541.7 638.061 1523.05 598.209 1520.56 595.695 C 1512.55 612.202 1504.43 628.651 1496.18 645.04 z"/>
<path transform="translate(0,0)" fill="rgb(240,240,240)" d="M 1175.98 574.351 L 1201.49 574.431 C 1201.27 610.086 1201.64 646.02 1201.36 681.681 C 1201.33 684.977 1201.58 685.094 1199.83 686.669 L 1176.77 686.622 C 1153.17 660.928 1129.84 634.996 1106.77 608.831 C 1107.72 634.879 1108.13 660.943 1107.99 687.008 C 1099.19 686.607 1091.74 686.596 1082.92 686.751 C 1082.15 651.16 1082.4 609.947 1082.91 574.359 C 1091.63 574.268 1100.35 574.359 1109.07 574.63 C 1113.07 580.066 1118.73 586.283 1123.4 591.253 C 1141.6 610.638 1158.73 631.151 1176.75 650.663 C 1174.84 635.921 1175.95 591.137 1175.98 574.351 z"/>
<path transform="translate(0,0)" fill="rgb(240,240,240)" d="M 1349.51 574.403 C 1385.54 573.891 1421.86 574.827 1458.06 574.214 L 1458 596.24 L 1416.01 596.146 L 1416.07 647.25 L 1416.08 686.808 C 1408.3 686.374 1397.19 686.808 1389.17 686.903 C 1388.22 660.521 1387.8 622.549 1388.97 596.2 L 1348.26 596.165 C 1348.27 591.773 1347.5 577.031 1349.51 574.403 z"/>
<path transform="translate(0,0)" fill="rgb(0,166,242)" d="M 956.373 574.145 C 989.565 575.009 1025.73 574.315 1059.1 574.344 C 1059.14 581.766 1059.43 590.672 1058.74 597.945 C 1024.62 597.738 990.5 597.764 956.379 598.025 C 956.74 589.22 956.792 582.945 956.373 574.145 z"/>
<path transform="translate(0,0)" fill="rgb(0,166,242)" d="M 956.522 617.945 C 989.542 618.785 1025.9 618.04 1059.18 617.978 C 1059.16 623.29 1059.58 637.061 1058.31 641.15 L 1056.2 641.677 C 1032.1 640.851 980.164 640.697 956.772 641.987 C 956.834 634.12 956.614 625.846 956.522 617.945 z"/>
<path transform="translate(0,0)" fill="rgb(0,166,242)" d="M 1056.9 662.463 C 1058.13 662.471 1057.5 662.374 1058.77 663.494 C 1059.5 669.354 1059.05 680.082 1058.97 686.322 C 1028.7 685.854 989.099 685.439 959.244 686.478 L 957.484 686.256 C 956.304 682.233 956.616 667.506 956.601 662.603 C 987.917 663.32 1025.6 663.278 1056.9 662.463 z"/>
</svg>